<?xml version="1.0" encoding="UTF-8" standalone="no"?>
<!-- Created with Inkscape (http://www.inkscape.org/) -->

<svg
   version="1.1"
   id="svg1"
   width="992.72729"
   height="992.72729"
   viewBox="0 0 992.72729 992.72729"
   xmlns="http://www.w3.org/2000/svg"
   xmlns:svg="http://www.w3.org/2000/svg">
  <defs
     id="defs1" />
  <g
     id="g1">
    <path
       style="fill:#000000;stroke-width:3"
       d="m 728.39629,975.62178 c -11.46123,-6.98772 -13.70661,-15.44313 -13.79463,-51.94635 -0.0423,-17.59875 0.98586,-47.1354 2.28513,-65.637 1.29924,-18.5016 2.0703,-33.93126 1.71345,-34.28808 -0.35685,-0.35685 -3.91011,9.38082 -7.89618,21.63927 -12.73398,39.1611 -22.05111,56.01027 -43.10628,77.95371 -22.59444,23.54763 -32.97087,30.0786 -50.7396,31.93581 -11.7903,1.23234 -14.08479,0.78282 -21.68853,-4.24911 -10.96737,-7.25787 -15.55329,-19.83966 -17.1531,-47.06088 l -1.20102,-20.43579 -9.81213,1.3449 c -5.39667,0.73968 -12.4533,1.3449 -15.68142,1.3449 -5.77404,0 -5.96604,0.46776 -11.83356,28.82559 -3.28035,15.85407 -7.97112,33.49062 -10.42392,39.19233 -7.09728,16.49811 -25.06032,26.95356 -31.98099,18.61464 -1.28814,-1.55208 -2.98905,-9.16116 -3.77988,-16.90908 l -1.43781,-14.08713 -15.849,0.70824 c -12.8166,0.5727 -19.81809,-0.53247 -36.59394,-5.77629 -19.22505,-6.00942 -22.72203,-8.05899 -47.72922,-27.9738 -14.84136,-11.8191 -40.72971,-35.39406 -57.52971,-52.38885 l -30.54546,-30.89955 -6.54546,3.34728 c -3.6,1.84101 -8.08596,4.68855 -9.96882,6.32784 -5.52162,4.80729 -67.02024,35.70876 -86.03118,43.22841 l -17.45454,6.90402 -5.99187,18.44319 c -10.12032,31.15077 -12.44904,36.24054 -17.66922,38.61903 -11.66025,5.31276 -23.22843,-2.80692 -27.7098,-19.44948 l -2.29476,-8.5221 -9.01446,7.71603 c -10.07646,8.62509 -18.6315,9.93936 -24.254462,3.72606 -6.11907,-6.76149 -3.86862,-23.58636 8.903612,-66.56595 7.18749,-24.18645 13.66977,-31.98954 26.57475,-31.98954 7.68675,0 9.56202,0.96549 13.06566,6.72675 2.24991,3.69969 4.55286,5.90877 5.11764,4.90908 0.56475,-0.99969 3.10923,-10.65399 5.6544,-21.45399 16.66233,-70.70427 25.77501,-116.02533 23.73864,-118.0617 -0.60666,-0.60666 -4.64553,0.3771 -8.97522,2.18619 -8.48022,3.54324 -10.4112,9.59763 -4.59945,14.42094 4.67781,3.88227 4.02561,15.10089 -1.39527,24 -13.37637,21.95913 -23.46129,32.18151 -39.45228,39.99006 -35.915762,17.53794 -49.620122,20.14497 -66.233042,12.59976 -21.97539,-9.9807 -24.13644,-28.01415 -8.40351,-70.12503 5.90193,-15.79722 33.52458,-51.48513 48.26955,-62.36334 4.567982,-3.37005 12.372542,-9.59883 17.343392,-13.8417 18.24132,-15.56976 44.45976,-29.20728 69.02151,-35.90151 5.7327,-1.56243 11.03586,-3.45354 11.78478,-4.20246 0.74895,-0.74895 2.68023,-8.33472 4.29171,-16.85727 4.08921,-21.62595 7.55214,-27.76365 25.455,-45.11631 28.59063,-27.71202 56.04975,-35.51592 56.04369,-15.92766 -9.3e-4,3.06 -3.03402,11.94546 -6.74019,19.74546 -5.73093,12.06138 -19.43988,47.08533 -19.43988,49.66551 0,0.81828 17.29686,-0.7722 33.27273,-3.05949 l 8.18181,-1.17138 v -19.05693 c 0,-18.24111 4.06863,-49.51656 16.34595,-125.65044 3.09618,-19.2 7.5588,-47.67273 9.91692,-63.27273 2.35815,-15.6 5.6133,-37.04811 7.23369,-47.66244 l 2.94621,-19.29882 -6.76686,1.46262 c -3.72174,0.80445 -14.27562,2.82222 -23.45301,4.48392 -9.17742,1.6617 -27.51558,5.51526 -40.75149,8.56347 -13.23591,3.04818 -24.50439,5.54217 -25.04109,5.54217 -1.82511,0 -9.14967,39.12363 -17.93913,95.82072 -3.05421,19.70139 -7.3923,44.24685 -9.6402,54.54546 -2.24787,10.29858 -5.70564,31.48836 -7.68393,47.08836 -5.09388,40.16877 -6.44985,44.42235 -15.34596,48.13941 -5.49417,2.2956 -10.01676,2.56872 -17.86176,1.07862 -22.08585,-4.19502 -34.91607,-12.31593 -42.62709,-26.98077 -9.96435,-18.95028 -7.05417,-85.24776 6.19575,-141.14634 7.14513,-30.14391 11.91417,-55.10328 10.75095,-56.26653 -0.51378,-0.51375 -10.56399,1.58124 -22.3338,4.65549 -25.757252,6.7278 -57.070952,11.06778 -68.649992,9.51471 -9.53046,-1.2783 -24.50325,-8.42499 -31.80723,-15.18195 -11.03148,-10.20528 -8.2935,-27.73233 6.98724,-44.72817 12.73812,-14.16783 25.6551,-20.73309 58.50993,-29.73852 15.225782,-4.17336 37.348742,-10.75605 49.162142,-14.62821 l 21.47889,-7.04031 2.6274,-19.8387 c 1.44507,-10.9113 3.54351,-26.22054 4.66317,-34.02054 1.11969,-7.8 4.10796,-29.4 6.64062,-48 15.93441,-117.023187 15.15012,-113.456487 27.97599,-127.230117 12.41337,-13.33065 20.17986,-16.77087 37.85115,-16.76649 16.48908,0.003 26.88258,4.62477 33.84477,15.04653 7.644,11.44239 7.00989,49.77756 -1.50144,90.768237 -3.48834,16.8 -9.30693,44.78184 -12.93021,62.18184 -7.68141,36.88842 -11.09505,60.87426 -8.86011,62.25555 2.2605,1.39704 63.58158,-11.27145 76.12782,-15.72747 10.06947,-3.57636 10.6233,-4.20924 12.92463,-14.76864 1.32237,-6.06771 3.42957,-22.32309 4.68267,-36.12309 10.16895,-111.989307 16.46118,-140.216097 37.26876,-167.186577 11.8989,-15.4232098 17.3508,-18.5171698 36.3918,-20.6525398 19.83099,-2.22396 26.48034,0.066 38.3334,13.20108 14.03715,15.5555098 15.6036,21.1876198 15.49971,55.7289598 -0.0702,23.31375 -1.75608,41.169267 -7.12131,75.418647 -3.86622,24.68025 -7.99431,48.23739 -9.17358,52.34922 -1.17924,4.11183 -2.1441,8.15634 -2.1441,8.98782 0,1.5993 22.76862,-4.31322 39.27273,-10.19829 11.05356,-3.94149 31.31121,-9.75423 88.36365,-25.35507 21.6,-5.90646 44.18181,-13.10253 50.18181,-15.99126 56.09082,-27.00522 86.57496,-37.47504 115.54668,-39.68466 13.66857,-1.04247 19.43508,-0.54528 26.10363,2.25057 8.40615,3.52434 8.6601,3.4926 14.18184,-1.77357 12.99489,-12.393447 27.42174,-11.651757 44.1936,2.27202 15.40536,12.7893 18.17715,19.9593 18.02778,46.63365 -0.141,25.15266 -0.1944,25.34103 -28.07853,99.05058 -6.76317,17.87781 -18.55386,53.22327 -26.20155,78.54546 -7.64766,25.32219 -18.34323,59.29488 -23.76792,75.49488 -5.42469,16.2 -14.92629,45.65454 -21.11469,65.45454 -11.60964,37.14552 -29.91606,76.33653 -50.57388,108.27027 -8.11668,12.54708 -11.99451,16.28262 -22.98234,22.13907 -15.6027,8.31615 -18.29673,8.50194 -34.88913,2.40609 -17.88927,-6.57234 -24.71556,-12.47355 -32.80167,-28.35648 -5.89098,-11.57124 -7.32492,-17.33322 -8.5179,-34.22751 l -1.43448,-20.31402 -6.81198,23.58675 c -7.54839,26.13657 -13.5357,39.59355 -19.12635,42.98796 -4.08036,2.47743 -26.94474,-1.29678 -36.66222,-6.05181 -4.79439,-2.34603 -7.03884,-1.81584 -18.54543,4.38087 -19.27134,10.37829 -38.20809,14.72997 -51.60045,11.85783 -26.31303,-5.64315 -42.41478,-21.52986 -52.08399,-51.38841 l -2.82042,-8.70942 -3.84702,11.31774 c -2.11584,6.22476 -7.36134,17.60199 -11.65665,25.28274 -4.29531,7.68072 -7.80966,14.4642 -7.80966,15.07437 0,0.6102 9.57273,1.67124 21.27273,2.35788 26.25915,1.54104 37.20738,5.18052 43.52664,14.4693 7.71675,11.34294 8.62122,24.57024 2.83146,41.40825 -8.72133,25.36389 -21.28602,49.67901 -31.77276,61.4865 l -10.19517,11.47923 8.44128,4.28535 c 14.55777,7.39047 60.33594,34.53075 71.17359,42.19632 5.70279,4.03362 10.76571,7.33386 11.25093,7.33386 0.48522,0 1.54503,-9.57273 2.35509,-21.27273 0.81009,-11.7 3.44625,-38.45454 5.85819,-59.45454 2.41194,-21 5.07567,-49.24398 5.91942,-62.76441 1.29684,-20.78103 2.2386,-25.28712 6.09003,-29.13852 3.49389,-3.49389 6.0912,-4.21878 11.14176,-3.1095 7.94925,1.74597 23.20368,16.60635 26.71029,26.02035 1.39521,3.74565 4.04211,10.43982 5.88198,14.87595 3.67578,8.86263 3.04683,41.32467 -1.45008,74.8434 -3.81516,28.43718 -11.01543,82.28691 -12.16212,90.95892 -1.0509,7.94757 -0.96042,8.05845 7.12206,8.7273 l 8.18649,0.67743 4.80531,-38.18181 c 2.64291,-21 4.85199,-42.62724 4.90908,-48.06054 0.1338,-12.73662 8.98458,-39.73554 18.99792,-57.95262 10.00053,-18.19374 35.44581,-44.28537 49.83315,-51.099 7.20822,-3.41373 16.1658,-5.47209 26.40429,-6.06747 l 15.49521,-0.90108 11.77752,10.41324 c 14.35989,12.69645 15.46404,14.25147 20.70264,29.1564 l 4.1658,11.85258 1.32609,-16.21623 c 2.88555,-35.28558 12.01194,-90.93498 19.47666,-118.76166 2.25339,-8.4 5.65857,-23.12727 7.56708,-32.72727 5.34012,-26.86116 22.95936,-71.14413 31.90266,-80.18184 7.00302,-7.07697 13.27452,-7.51989 26.45847,-1.86858 15.12999,6.48549 15.24108,7.06365 17.85891,92.9595 1.02042,33.48162 3.77229,76.18722 8.15433,126.54546 1.35747,15.6 2.77335,36.21819 3.14643,45.81819 0.37308,9.6 1.46721,21.81252 2.43141,27.13896 l 1.75305,9.68442 8.68968,-17.12001 8.68968,-17.12001 1.82991,-52.55214 c 1.95918,-56.26482 3.35943,-63.6249 13.35006,-70.17102 7.09227,-4.64703 15.18882,-1.75683 19.095,6.81627 2.19489,4.81728 3.57225,5.46264 9.34659,4.37937 9.24033,-1.73349 14.27424,2.52759 16.34154,13.83279 0.9411,5.1465 1.20798,44.85195 0.59304,88.23432 -1.15548,81.51759 0.88941,128.96406 7.34892,170.5134 1.86558,12 4.35261,22.8 5.52675,24 2.73927,2.79966 7.70691,-3.73626 10.48389,-13.79361 6.7023,-24.27369 30.25947,-19.6812 38.45775,7.49736 8.32146,27.58695 5.93211,57.00318 -6.28575,77.38641 -8.6937,14.5038 -18.79851,21.63714 -30.6504,21.63714 -7.79244,0 -10.11921,-1.34205 -19.85916,-11.45457 -23.59842,-24.50097 -38.36757,-66.87438 -42.28923,-121.32987 l -1.47063,-20.42079 -14.68098,21.51171 c -8.07453,11.83143 -19.89462,27.89352 -26.26689,35.69352 -10.42398,12.75945 -12.47742,14.24763 -20.47446,14.83809 -6.97206,0.5148 -10.3329,-0.55908 -15.58746,-4.98048 -9.24534,-7.77945 -11.12781,-15.58176 -11.06409,-45.85761 0.0303,-14.4 -0.64485,-40.90911 -1.50033,-58.90911 -0.85551,-18 -1.82313,-38.61819 -2.15025,-45.81819 -0.32715,-7.2 -1.27017,-38.12727 -2.09562,-68.72727 -0.82545,-30.6 -2.38998,-56.56908 -3.47673,-57.70908 -1.19904,-1.25778 -1.99428,0.8868 -2.0226,5.45454 -0.027,4.14 -1.06152,21.76365 -2.30184,39.16365 -1.24035,17.4 -3.13362,60.10908 -4.20726,94.90908 -3.52923,114.39252 -7.3146,185.7801 -10.96113,206.71509 -2.87985,16.53321 -7.28307,23.4603 -18.20802,28.64451 -9.6048,4.55778 -11.84043,4.46328 -20.58819,-0.87006 z m -228.38607,-117.91236 1.51308,-18.69558 -26.99988,-17.6856 c -25.2045,-16.5096 -73.47558,-42.13086 -91.56465,-48.6006 -7.91826,-2.83203 -7.95636,-2.8161 -21.2649,8.89857 l -13.33242,11.7357 10.35579,10.68009 c 14.56461,15.02067 53.27121,48.06615 67.88946,57.96012 6.75648,4.57293 15.90594,9.61428 20.33211,11.20296 7.54323,2.70747 8.57607,2.52225 16.48089,-2.95581 11.09439,-7.6884 16.9071,-7.38453 25.29483,1.3224 3.79719,3.94167 7.55166,6.64167 8.3433,6 0.79164,-0.6417 2.12022,-9.57969 2.95239,-19.86225 z m 136.79187,13.78647 c 11.44068,-12.17883 18.91662,-32.69193 32.40261,-88.90911 5.85561,-24.4095 8.3535,-74.78436 4.31505,-87.02103 -3.4806,-10.54629 -7.52625,-9.72567 -17.45691,3.54096 -11.95575,15.972 -20.43084,40.87242 -31.75494,93.29826 -1.94403,9 -4.09584,29.33478 -4.78182,45.18837 -1.06524,24.61815 -0.7176,29.6331 2.38197,34.36365 4.64166,7.08408 7.90095,6.98316 14.89404,-0.4611 z M 222.89122,807.66684 c 18.87318,-6.79284 28.07727,-11.20608 37.53519,-17.99763 l 9.17154,-6.58593 -9.69921,-12.60483 c -5.33454,-6.93267 -10.68903,-15.20832 -11.89881,-18.3903 -6.05175,-15.91731 1.88475,-36.60828 16.81689,-43.84263 11.75001,-5.69271 46.04991,-6.74361 72.23748,-2.21328 11.1897,1.93578 21.27531,2.94456 22.41246,2.24175 5.66487,-3.50106 23.78808,-47.63589 23.78808,-57.93027 0,-4.64967 -0.42801,-4.71489 -21.44589,-3.2673 -26.83491,1.84821 -72.68808,10.45506 -94.11384,17.66556 -8.95788,3.01464 -17.30334,5.49621 -18.54546,5.51457 -6.86433,0.1017 -8.04819,3.80841 -37.14231,116.2998 -6.13029,23.70255 -6.684,27.74583 -3.62955,26.5032 1.98237,-0.80649 8.51343,-3.23319 14.51343,-5.39271 z M 504.82429,536.2218 c 3.44733,-2.90073 8.84835,-10.01892 12.00228,-15.81819 9.12975,-16.78734 36.08025,-99.16812 40.03236,-122.36868 6.58728,-38.67036 4.07031,-67.97373 -6.00516,-69.9141 -6.78978,-1.30758 -20.28327,9.63384 -28.70229,23.27373 -10.07397,16.32114 -27.67023,58.48857 -37.9023,90.82857 -7.14555,22.5846 -7.53369,25.35219 -6.58116,46.92768 0.76461,17.31873 2.24109,25.85877 6.03546,34.90911 8.2554,19.6908 10.58142,21.03021 21.12081,12.16188 z m 176.9082,-69.4788 c 1.25658,-1.51407 7.60785,-17.46861 14.11395,-35.45454 36.57624,-101.11386 61.2234,-213.99603 51.42183,-235.50813 -2.97774,-6.53544 -3.79647,-6.65211 -14.44713,-2.05896 -11.34534,4.8927 -48.81996,18.46926 -97.67397,35.38596 l -41.56221,14.39178 9.14361,8.81655 c 12.50955,12.06207 21.282,38.09907 21.4797,63.75249 0.0756,9.82965 0.90534,16.47294 1.84701,14.7903 4.08519,-7.29984 10.29048,-37.76139 10.29048,-50.51562 0,-17.09013 3.55758,-23.16315 16.45425,-28.08843 16.53426,-6.31449 49.94445,-0.4974 55.37013,9.64059 3.88446,7.25814 2.99469,11.08461 -12.9915,55.87089 -18.44898,51.68586 -23.58354,71.86131 -25.38201,99.73437 -1.20285,18.64182 1.38879,44.36835 5.07306,50.35926 1.49931,2.43798 4.28961,1.98402 6.8628,-1.11651 z M 448.71985,323.18214 c 2.68662,-5.32746 9.30849,-15.92853 14.7153,-23.55795 7.27458,-10.26498 8.76549,-13.56303 5.73423,-12.68457 -2.253,0.65292 -8.51451,2.39706 -13.91451,3.87585 -5.4,1.47882 -10.57842,3.33255 -11.50761,4.11942 -1.5096,1.27842 -10.46817,55.57821 -10.20393,61.84836 0.0585,1.39194 2.39829,-3.41946 5.19921,-10.69203 2.80092,-7.27254 7.29072,-17.58162 9.97731,-22.90908 z m 424.35321,229.52067 c -4.8,-2.18346 -10.00206,-5.51067 -11.56014,-7.39377 -5.2098,-6.29658 -5.5668,-17.82198 -0.8802,-28.41678 7.71948,-17.45115 22.91415,-22.92567 39.55161,-14.25006 11.34897,5.91789 17.616,16.25673 17.616,29.06145 0,20.91627 -22.10001,31.29207 -44.72727,20.99916 z"
       id="path1" />
  </g>
</svg>
